<svg xmlns="http://www.w3.org/2000/svg" width="24" height="24" viewBox="0 0 24 24" fill="#607B96">
  <path d="M19.27 4.54a10.4 10.4 0 00-2.56-.79.05.05 0 00-.05.02c-.11.2-.23.44-.31.65a9.6 9.6 0 00-2.66-.37c-.9 0-1.8.13-2.66.37-.08-.2-.2-.44-.31-.65a.05.05 0 00-.05-.02c-.93.18-1.8.46-2.56.79a.05.05 0 00-.02.02c-1.52 2.27-2.07 4.5-1.92 6.67 0 .03.01.05.03.07a10.5 10.5 0 003.17 1.6.05.05 0 00.06-.02c.22-.3.42-.62.6-.96.02-.03 0-.07-.03-.08a6.8 6.8 0 01-1-.48c-.03-.02-.04-.06-.01-.08l.2-.15c.01-.01.03-.01.05 0A7.5 7.5 0 0012 13.5c1 0 1.95-.14 2.84-.4a.05.05 0 00.05 0c.07.05.13.1.2.15a.05.05 0 01-.01.08c-.32.2-.66.36-1 .48-.03.01-.05.05-.03.08.18.34.38.66.6.96.02.02.05.03.06.02a10.5 10.5 0 003.17-1.6.05.05 0 00.03-.07c.18-2.5-.4-4.73-1.92-6.67a.05.05 0 00-.02-.02zM9.44 11.1c-.63 0-1.15-.58-1.15-1.3s.5-1.3 1.15-1.3c.65 0 1.16.58 1.16 1.3s-.5 1.3-1.16 1.3zm5.12 0c-.63 0-1.15-.58-1.15-1.3s.5-1.3 1.15-1.3c.65 0 1.16.58 1.16 1.3s-.5 1.3-1.16 1.3z"/>
</svg>
