<svg xmlns="http://www.w3.org/2000/svg" width="24" height="24" viewBox="0 0 24 24" fill="#607B96">
  <path d="M12 2C6.48 2 2 6.48 2 12s4.48 10 10 10 10-4.48 10-10S17.52 2 12 2zm4.64 6.8c-.15 1.58-.8 5.42-1.13 7.19-.14.75-.42 1-.68 1.03-.58.05-1.02-.38-1.58-.75-.88-.58-1.38-.94-2.23-1.5-.99-.65-.35-1.01.22-1.59.15-.15 2.71-2.48 2.76-2.69.01-.03.01-.14-.07-.2-.08-.06-.19-.04-.27-.02-.11.02-1.91 1.21-5.4 3.56-.51.35-.97.52-1.38.51-.45-.01-1.32-.26-1.97-.47-.79-.26-1.42-.4-1.36-.85.03-.23.35-.47.95-.71 3.71-1.61 6.19-2.67 7.42-3.19 3.53-1.48 4.27-1.74 4.75-1.74.11 0 .35.03.5.15.13.12.17.29.18.41-.01.03-.01.1-.02.13z"/>
</svg>
