<svg xmlns="http://www.w3.org/2000/svg" width="24" height="24" viewBox="0 0 24 24" fill="#607B96">
  <path d="M17.44 14.17c-.55-.16-2.03-.99-2.35-1.11-.32-.12-.55-.18-.78.18-.23.36-.88 1.11-1.08 1.34-.2.23-.4.26-.73.1-.33-.16-1.38-.51-2.63-1.63-.97-.87-1.63-1.95-1.82-2.29-.19-.34-.02-.52.14-.69.15-.15.33-.39.5-.59.17-.2.22-.34.33-.56.11-.22.05-.42-.03-.59-.08-.17-.78-1.88-1.07-2.58-.28-.68-.56-.59-.78-.6-.2-.01-.43-.01-.66-.01-.23 0-.6.09-.91.44-.31.35-1.2 1.17-1.2 2.85 0 1.68 1.22 3.3 1.39 3.53.17.23 2.41 3.68 5.8 5.14.81.35 1.44.56 1.93.72.82.26 1.57.22 2.16.13.66-.1 2.03-.83 2.31-1.63.28-.8.28-1.48.2-1.63-.09-.12-.32-.19-.66-.35zM12 2C6.48 2 2 6.48 2 12s4.48 10 10 10 10-4.48 10-10S17.52 2 12 2zm0 18c-4.41 0-8-3.59-8-8s3.59-8 8-8 8 3.59 8 8-3.59 8-8 8z"/>
</svg>
